<?xml version="1.0" standalone="no"?>
<!DOCTYPE svg PUBLIC "-//W3C//DTD SVG 20010904//EN"
 "http://www.w3.org/TR/2001/REC-SVG-20010904/DTD/svg10.dtd">
<svg version="1.0" xmlns="http://www.w3.org/2000/svg"
 width="2091.000000pt" height="1300.000000pt" viewBox="0 0 2091.000000 1300.000000"
 preserveAspectRatio="xMidYMid meet">
<metadata>
Created by potrace 1.15, written by Peter Selinger 2001-2017
</metadata>
<g transform="translate(0.000000,1300.000000) scale(0.100000,-0.100000)"
fill="#000000" stroke="none">
<path d="M5615 10474 c-33 -8 -71 -17 -85 -20 -97 -21 -239 -106 -340 -205
-83 -82 -190 -243 -190 -286 0 -7 -4 -13 -8 -13 -4 0 -9 -11 -10 -25 -1 -14
-8 -38 -16 -53 -26 -51 -38 -211 -25 -336 9 -87 72 -276 91 -276 5 0 8 -8 8
-17 0 -26 76 -128 145 -195 66 -65 170 -142 207 -153 12 -4 32 -13 43 -19 58
-35 197 -67 315 -71 72 -3 222 14 235 26 5 5 18 9 30 9 43 0 157 53 245 114
68 46 187 169 217 222 12 21 33 64 48 94 14 30 30 62 35 71 5 9 12 33 15 53 4
20 10 36 14 36 4 0 7 8 8 18 1 9 5 59 10 110 10 108 -1 265 -22 304 -8 14 -15
34 -15 45 0 10 -11 37 -24 60 -14 23 -28 52 -31 64 -25 78 -147 224 -245 291
-25 18 -47 34 -50 37 -8 10 -131 69 -177 85 -23 8 -63 18 -90 22 -26 3 -52 9
-58 13 -20 14 -220 10 -280 -5z"/>
</g>
</svg>
